<svg width="30" height="28" viewBox="0 0 30 28" fill="none" xmlns="http://www.w3.org/2000/svg">
<path d="M14.6018 3.5507C15.6124 2.16235 17.5572 1.85618 18.9456 2.86684C20.3339 3.8775 20.6401 5.82227 19.6294 7.21061L5.85764 26.1289C4.84698 27.5173 2.9022 27.8234 1.51386 26.8128C0.125515 25.8021 -0.18066 23.8574 0.829999 22.469L14.6018 3.5507Z" fill="#1783CE"/>
<path d="M10.7298 22.4827C9.71915 23.871 10.0253 25.8158 11.4137 26.8265C12.802 27.8371 14.7468 27.531 15.7574 26.1426L24.2315 14.5018C25.2422 13.1134 24.936 11.1687 23.5477 10.158C22.1593 9.14734 20.2145 9.45352 19.2039 10.8419L10.7298 22.4827Z" fill="#1783CE"/>
<path d="M20.6408 22.5779C19.6302 23.9662 19.9364 25.911 21.3247 26.9216C22.7131 27.9323 24.6578 27.6261 25.6685 26.2378L28.8361 21.8865C29.8467 20.4981 29.5405 18.5534 28.1522 17.5427C26.7639 16.532 24.8191 16.8382 23.8084 18.2266L20.6408 22.5779Z" fill="#1783CE"/>
<path d="M9.41585 5.58795C8.33738 7.06944 6.26213 7.39616 4.78063 6.31769C3.29914 5.23923 2.97242 3.16397 4.05089 1.68248C5.12936 0.200982 7.20462 -0.125734 8.68611 0.952734C10.1676 2.0312 10.4943 4.10646 9.41585 5.58795Z" fill="#1783CE"/>
</svg>
